# xmcd
#
# Track frame offsets: 
#        150
#        17813
#        32465
#        43334
#        51398
#        65564
#        81376
#        102584
#        111177
#        125636
#        135931
#        147310
#        162236
#        188062
#        198666
#        211496
#        223229
#        238679
#        248793
#        267797
#        282748
#        291718
#        305444
#
# Disc length: 4179 seconds
#
# Revision: 0
# Processed by: cddbd v1.5.2PL0 Copyright (c) Steve Scherf et al.
# Submitted via: ExactAudioCopy v1.0b4
#
DISCID=79105117
DTITLE=Marty Robbins - Gunfighter Ballads And Trail Songs And More
DYEAR=1959
DGENRE=Country
TTITLE0=Big Iron
TTITLE1=Cool Water
TTITLE2=Billy The Kid
TTITLE3=A Hundred And Sixty Acres
TTITLE4=They're Hanging Me Tonight
TTITLE5=Strawberry Roan
TTITLE6=El Paso
TTITLE7=In The Valley
TTITLE8=The Master's Call
TTITLE9=Running Gun
TTITLE10=Down In The Little Green Valley
TTITLE11=Utah Carol
TTITLE12=San Angelo
TTITLE13=Prairie Fire
TTITLE14=Streets Of Laredo
TTITLE15=Song Of The Bandit
TTITLE16=I've Got No Use For The Women
TTITLE17=Five Brothers
TTITLE18=Little Joe The Wrangler
TTITLE19=Ride, Cowboy Ride
TTITLE20=This Peaceful Sod
TTITLE21=She Was Young And She Was Pretty
TTITLE22=My Love
EXTD=
EXTT0=
EXTT1=
EXTT2=
EXTT3=
EXTT4=
EXTT5=
EXTT6=
EXTT7=
EXTT8=
EXTT9=
EXTT10=
EXTT11=
EXTT12=
EXTT13=
EXTT14=
EXTT15=
EXTT16=
EXTT17=
EXTT18=
EXTT19=
EXTT20=
EXTT21=
EXTT22=
PLAYORDER=
